<svg xmlns="http://www.w3.org/2000/svg" viewBox="0 0 160 160" fill="none" role="img" aria-labelledby="title desc">
  <title id="title">CESP Business Mark</title>
  <desc id="desc">Marca reduzida da CESP Business com três pássaros dourados e um pássaro branco.</desc>
  <defs>
    <linearGradient id="gold" x1="16" y1="80" x2="144" y2="80" gradientUnits="userSpaceOnUse">
      <stop stop-color="#B9852C" />
      <stop offset="0.48" stop-color="#F0C56C" />
      <stop offset="1" stop-color="#B9852C" />
    </linearGradient>
  </defs>
  <path d="M70 21c8-6 17-6 24 2 7-8 16-8 24-2-10-2-17 1-24 10-7-9-14-12-24-10Z" fill="url(#gold)" />
  <path d="M42 48c15-8 28-7 42 8 14-15 27-16 42-8-17-2-29 2-42 14-13-12-25-16-42-14Z" fill="#F8F8F8" />
  <path d="M84 66c17-7 33-5 56 8-20-4-35-2-56 12-8-8-17-13-28-15 9-2 18-3 28-5Z" fill="url(#gold)" />
  <path d="M16 103c31-18 61-17 80 7 20-24 49-25 48-7-18-6-40-4-64 21-24-25-44-27-64-21Z" fill="url(#gold)" />
</svg>