<svg xmlns="http://www.w3.org/2000/svg" viewBox="0 0 768 768" fill="none" role="img" aria-labelledby="title desc">
  <title id="title">CESP Business</title>
  <desc id="desc">Logotipo da CESP Business com passaros dourados e brancos sobre o nome da marca.</desc>
  <defs>
    <linearGradient id="gold" x1="116" y1="384" x2="652" y2="384" gradientUnits="userSpaceOnUse">
      <stop stop-color="#BE8C2E" />
      <stop offset="0.5" stop-color="#F1C56A" />
      <stop offset="1" stop-color="#BE8C2E" />
    </linearGradient>
    <filter id="softShadow" x="82" y="72" width="604" height="548" filterUnits="userSpaceOnUse" color-interpolation-filters="sRGB">
      <feDropShadow dx="0" dy="12" stdDeviation="18" flood-color="#000" flood-opacity="0.28" />
    </filter>
  </defs>

  <g filter="url(#softShadow)">
    <path d="M327 121C349 104 380 103 405 126C430 103 461 104 483 121C455 115 433 122 405 149C377 122 355 115 327 121Z" fill="url(#gold)" />
    <path d="M229 196C274 171 315 174 341 207C367 174 408 171 453 196C414 191 382 199 341 229C300 199 268 191 229 196Z" fill="#F5F5F5" />
    <path d="M410 248C449 227 489 227 560 252C506 245 463 252 406 277C385 257 364 245 341 240C362 239 385 242 410 248Z" fill="url(#gold)" />
    <path d="M116 335C213 286 310 287 402 348C494 287 591 286 652 335C574 318 494 327 402 381C309 327 228 318 116 335Z" fill="url(#gold)" />

    <text x="384" y="525" text-anchor="middle" fill="#F7F7F7" font-family="Georgia, 'Times New Roman', serif" font-size="170" letter-spacing="18">CESP</text>

    <line x1="112" y1="578" x2="183" y2="578" stroke="url(#gold)" stroke-width="4" stroke-linecap="round" />
    <line x1="585" y1="578" x2="656" y2="578" stroke="url(#gold)" stroke-width="4" stroke-linecap="round" />
    <text x="384" y="592" text-anchor="middle" fill="url(#gold)" font-family="Arial, Helvetica, sans-serif" font-size="44" letter-spacing="18">BUSINESS</text>
  </g>
</svg>