<svg width="900" height="1480" viewBox="0 0 900 1480" fill="none" xmlns="http://www.w3.org/2000/svg">
  <rect width="900" height="1480" rx="48" fill="#0B141A"/>
  <rect x="34" y="34" width="832" height="1412" rx="40" fill="#111B21"/>
  <rect x="34" y="34" width="832" height="116" rx="40" fill="#202C33"/>
  <circle cx="106" cy="92" r="34" fill="#18C277" fill-opacity="0.18"/>
  <path d="M106 72C95.5066 72 87 80.5066 87 91C87 95.2053 88.3654 99.0918 90.6768 102.239L88.1454 111.213L97.4353 108.768C100.377 110.636 103.872 111.722 107.622 111.722C118.115 111.722 126.622 103.215 126.622 92.7216C126.622 82.2282 118.115 73.7216 107.622 73.7216H106V72Z" fill="#18C277"/>
  <circle cx="780" cy="92" r="7" fill="#D9E1E7" fill-opacity="0.9"/>
  <circle cx="810" cy="92" r="7" fill="#D9E1E7" fill-opacity="0.9"/>
  <circle cx="840" cy="92" r="7" fill="#D9E1E7" fill-opacity="0.9"/>
  <text x="160" y="86" fill="#F8FAFC" font-family="Arial, sans-serif" font-size="34" font-weight="700">Anderson</text>
  <text x="160" y="122" fill="#9FB0BB" font-family="Arial, sans-serif" font-size="22">CasaLúmina Outlet • online agora</text>

  <rect x="84" y="192" width="432" height="98" rx="28" fill="#202C33"/>
  <text x="120" y="242" fill="#D7E1E8" font-family="Arial, sans-serif" font-size="28">Daniel, ficou absurdo de bom.</text>
  <text x="390" y="274" fill="#8AA1B1" font-family="Arial, sans-serif" font-size="18">09:14</text>

  <rect x="84" y="324" width="566" height="188" rx="30" fill="#202C33"/>
  <text x="120" y="380" fill="#D7E1E8" font-family="Arial, sans-serif" font-size="28">Mesmo sendo leigo em tecnologia,</text>
  <text x="120" y="420" fill="#D7E1E8" font-family="Arial, sans-serif" font-size="28">vocês explicaram tudo com muita</text>
  <text x="120" y="460" fill="#D7E1E8" font-family="Arial, sans-serif" font-size="28">clareza e transparência.</text>
  <text x="540" y="494" fill="#8AA1B1" font-family="Arial, sans-serif" font-size="18">09:15</text>

  <rect x="286" y="548" width="530" height="232" rx="30" fill="#005C4B"/>
  <text x="326" y="606" fill="#F6FFF9" font-family="Arial, sans-serif" font-size="28">Esse era o objetivo: te entregar uma</text>
  <text x="326" y="646" fill="#F6FFF9" font-family="Arial, sans-serif" font-size="28">estrutura forte, simples de operar e</text>
  <text x="326" y="686" fill="#F6FFF9" font-family="Arial, sans-serif" font-size="28">que já entrasse vendendo.</text>
  <text x="706" y="752" fill="#B7F4D7" font-family="Arial, sans-serif" font-size="18">09:16 ✓✓</text>

  <rect x="84" y="816" width="608" height="268" rx="30" fill="#202C33"/>
  <text x="120" y="878" fill="#D7E1E8" font-family="Arial, sans-serif" font-size="28">Vocês não entregaram só o combinado.</text>
  <text x="120" y="918" fill="#D7E1E8" font-family="Arial, sans-serif" font-size="28">Foram muito além e montaram uma</text>
  <text x="120" y="958" fill="#D7E1E8" font-family="Arial, sans-serif" font-size="28">estrutura robusta pra minha loja.</text>
  <text x="120" y="998" fill="#D7E1E8" font-family="Arial, sans-serif" font-size="28">Antes de terminar, eu já separei um</text>
  <text x="120" y="1038" fill="#D7E1E8" font-family="Arial, sans-serif" font-size="28">segundo projeto pra fazermos juntos.</text>
  <text x="584" y="1066" fill="#8AA1B1" font-family="Arial, sans-serif" font-size="18">09:18</text>

  <rect x="178" y="1120" width="638" height="150" rx="30" fill="#005C4B"/>
  <text x="218" y="1180" fill="#F6FFF9" font-family="Arial, sans-serif" font-size="28">Perfeito. Esse segundo projeto a gente</text>
  <text x="218" y="1220" fill="#F6FFF9" font-family="Arial, sans-serif" font-size="28">já entra com a base certa desde o início.</text>
  <text x="698" y="1248" fill="#B7F4D7" font-family="Arial, sans-serif" font-size="18">09:19 ✓✓</text>

  <rect x="84" y="1306" width="492" height="92" rx="28" fill="#202C33"/>
  <text x="120" y="1360" fill="#D7E1E8" font-family="Arial, sans-serif" font-size="28">Profissionalismo altíssimo. Parabéns.</text>
  <text x="458" y="1388" fill="#8AA1B1" font-family="Arial, sans-serif" font-size="18">09:20</text>
</svg>