<svg width="900" height="1480" viewBox="0 0 900 1480" fill="none" xmlns="http://www.w3.org/2000/svg">
  <rect width="900" height="1480" rx="48" fill="#0B141A"/>
  <rect x="34" y="34" width="832" height="1412" rx="40" fill="#111B21"/>
  <rect x="34" y="34" width="832" height="116" rx="40" fill="#202C33"/>
  <circle cx="106" cy="92" r="34" fill="#22D3EE" fill-opacity="0.16"/>
  <path d="M94 80H118C124.627 80 130 85.3726 130 92V92C130 98.6274 124.627 104 118 104H110L100 114V104H94C87.3726 104 82 98.6274 82 92V92C82 85.3726 87.3726 80 94 80Z" fill="#22D3EE"/>
  <circle cx="780" cy="92" r="7" fill="#D9E1E7" fill-opacity="0.9"/>
  <circle cx="810" cy="92" r="7" fill="#D9E1E7" fill-opacity="0.9"/>
  <circle cx="840" cy="92" r="7" fill="#D9E1E7" fill-opacity="0.9"/>
  <text x="160" y="86" fill="#F8FAFC" font-family="Arial, sans-serif" font-size="34" font-weight="700">Claudinei</text>
  <text x="160" y="122" fill="#9FB0BB" font-family="Arial, sans-serif" font-size="22">GranilPiso • visto por último hoje</text>

  <rect x="84" y="196" width="500" height="140" rx="30" fill="#202C33"/>
  <text x="120" y="254" fill="#D7E1E8" font-family="Arial, sans-serif" font-size="28">Achei que colocar a empresa na</text>
  <text x="120" y="294" fill="#D7E1E8" font-family="Arial, sans-serif" font-size="28">internet ia virar uma dor de cabeça.</text>
  <text x="510" y="320" fill="#8AA1B1" font-family="Arial, sans-serif" font-size="18">11:07</text>

  <rect x="322" y="372" width="494" height="150" rx="30" fill="#005C4B"/>
  <text x="362" y="432" fill="#F6FFF9" font-family="Arial, sans-serif" font-size="28">A ideia era justamente simplificar</text>
  <text x="362" y="472" fill="#F6FFF9" font-family="Arial, sans-serif" font-size="28">o processo e te entregar pronto pra</text>
  <text x="362" y="512" fill="#F6FFF9" font-family="Arial, sans-serif" font-size="28">usar e vender.</text>
  <text x="706" y="494" fill="#B7F4D7" font-family="Arial, sans-serif" font-size="18">11:08 ✓✓</text>

  <rect x="84" y="558" width="598" height="270" rx="30" fill="#202C33"/>
  <text x="120" y="620" fill="#D7E1E8" font-family="Arial, sans-serif" font-size="28">E foi exatamente isso que aconteceu.</text>
  <text x="120" y="660" fill="#D7E1E8" font-family="Arial, sans-serif" font-size="28">Vocês entregaram rápido, ficou fácil</text>
  <text x="120" y="700" fill="#D7E1E8" font-family="Arial, sans-serif" font-size="28">de mexer e os clientes já estão me</text>
  <text x="120" y="740" fill="#D7E1E8" font-family="Arial, sans-serif" font-size="28">achando no Google e chamando no Zap.</text>
  <text x="560" y="806" fill="#8AA1B1" font-family="Arial, sans-serif" font-size="18">11:11</text>

  <rect x="248" y="864" width="568" height="150" rx="30" fill="#005C4B"/>
  <text x="288" y="924" fill="#F6FFF9" font-family="Arial, sans-serif" font-size="28">Excelente. Quando o digital entra</text>
  <text x="288" y="964" fill="#F6FFF9" font-family="Arial, sans-serif" font-size="28">organizado, o Google e o WhatsApp</text>
  <text x="288" y="1004" fill="#F6FFF9" font-family="Arial, sans-serif" font-size="28">começam a trabalhar a seu favor.</text>
  <text x="706" y="990" fill="#B7F4D7" font-family="Arial, sans-serif" font-size="18">11:12 ✓✓</text>

  <rect x="84" y="1050" width="442" height="94" rx="28" fill="#202C33"/>
  <text x="120" y="1106" fill="#D7E1E8" font-family="Arial, sans-serif" font-size="28">Valeu cada centavo, de verdade.</text>
  <text x="408" y="1132" fill="#8AA1B1" font-family="Arial, sans-serif" font-size="18">11:13</text>

  <rect x="262" y="1180" width="554" height="186" rx="30" fill="#005C4B"/>
  <text x="302" y="1242" fill="#F6FFF9" font-family="Arial, sans-serif" font-size="28">Obrigado, Claudinei. Agora a base</text>
  <text x="302" y="1282" fill="#F6FFF9" font-family="Arial, sans-serif" font-size="28">está pronta para escalar mais sem</text>
  <text x="302" y="1322" fill="#F6FFF9" font-family="Arial, sans-serif" font-size="28">complicar sua rotina.</text>
  <text x="706" y="1348" fill="#B7F4D7" font-family="Arial, sans-serif" font-size="18">11:14 ✓✓</text>
</svg>